<?xml version="1.0" standalone="no"?><!DOCTYPE svg PUBLIC "-//W3C//DTD SVG 1.1//EN" "http://www.w3.org/Graphics/SVG/1.1/DTD/svg11.dtd"><svg t="1726213317404" class="icon" viewBox="0 0 1024 1024" version="1.1" xmlns="http://www.w3.org/2000/svg" p-id="4683" xmlns:xlink="http://www.w3.org/1999/xlink" width="256" height="256"><path d="M621.46726 1024c-29.616126-31.411043-62.822086-73.591586-77.18142-113.977213-35.000876-97.822962 0-194.748466 0-194.748466s-113.977213 13.461876-166.927256 176.799299c-15.256792 47.565294 4.487292 96.925504 26.923751 131.92638C244.534745 976.434706 127.865157 827.456617 127.865157 649.75986 127.865157 551.936897 196.969451 490.909728 256.201704 421.805434c34.103418-39.488168 63.719544-194.748466 63.719544-194.748466s49.36021 68.206836 63.719544 162.439965c19.744084 127.439089 0 162.439965 0 162.439964S477.873921 478.345311 479.668838 324.87993C481.463755 152.567923 383.640792 0 383.640792 0s223.467134 127.439089 280.007012 291.67397c67.309378 195.645925 40.385627 391.291849 40.385626 391.291849s65.514461-43.078002 96.028046-97.822962c33.20596-59.232252 32.308501-130.131464 32.308501-130.131463s62.822086 105.002629 63.719544 194.748466c2.692375 176.799299-114.874671 326.674847-274.622261 374.24014z m0 0" fill="#E9471A" p-id="4684"></path></svg>